# xmcd
#
# Track frame offsets:
#	150
#	18114
#	33969
#	48584
#	62930
#	79018
#	93141
#	107054
#	119503
#	134243
#	150015
#	168967
#	184912
#	199565
#	217862
#	233047
#	248744
#	265419
#	280500
#
# Disc length: 3937 seconds
#
# Revision: 1
# Processed by: cddbd v1.5.2PL0 Copyright (c) Steve Scherf et al.
# Submitted via: audiograbber 1.83.01
#
DISCID=f70f5f13
DTITLE=Various Artist - Hott Country 204
DYEAR=2013
DGENRE=Country
TTITLE0=Leah Daniels and Ryan Laird - Where Do I Go
TTITLE1=Kenny Chesney - Pirate Flag
TTITLE2=Lady Antebellum - Downtown
TTITLE3=Tim Hicks - Get By
TTITLE4=Kip Moore - Hey Pretty Girl
TTITLE5=Jess Moskaluke - Hit N Run
TTITLE6=Dustin Lynch - She Cranks My Tractor
TTITLE7=Gord Bamford - Farm Girl Strong
TTITLE8=Eric Church - Like Jesus Does
TTITLE9=Sean Hogan - One Kiss From You
TTITLE10=Aaron Lewis - Forever
TTITLE11=Cassadee Pope - Over You
TTITLE12=Donny Parenteau - Sunshower
TTITLE13=Charlie Major - Hold Me
TTITLE14=Jake Owen - Anywhere With  You
TTITLE15=Tenille - Dear Heart
TTITLE16=Orchard - Run Baby Run
TTITLE17=Charlie Worsham - Could It Be
TTITLE18=Joel Crouse - If You Want Some
EXTD=February 2013
EXTT0=
EXTT1=
EXTT2=
EXTT3=
EXTT4=
EXTT5=
EXTT6=
EXTT7=
EXTT8=
EXTT9=
EXTT10=
EXTT11=
EXTT12=
EXTT13=
EXTT14=
EXTT15=
EXTT16=
EXTT17=
EXTT18=
PLAYORDER=
